<svg width="42" height="71" viewBox="0 0 42 71" fill="none" xmlns="http://www.w3.org/2000/svg">
<path d="M24.9531 49.8906H14.5C14.5312 46.9844 14.7812 44.5469 15.25 42.5781C15.7188 40.5781 16.5 38.7656 17.5938 37.1406C18.7188 35.5156 20.2031 33.7969 22.0469 31.9844C23.4844 30.6094 24.7812 29.3125 25.9375 28.0938C27.0938 26.8438 28.0156 25.5312 28.7031 24.1562C29.3906 22.75 29.7344 21.1406 29.7344 19.3281C29.7344 17.3594 29.4062 15.6875 28.75 14.3125C28.0938 12.9375 27.125 11.8906 25.8438 11.1719C24.5938 10.4531 23.0312 10.0938 21.1562 10.0938C19.5938 10.0938 18.125 10.4063 16.75 11.0312C15.375 11.625 14.2656 12.5625 13.4219 13.8438C12.5781 15.0938 12.125 16.75 12.0625 18.8125H0.765625C0.828125 14.875 1.76562 11.5625 3.57812 8.875C5.39062 6.1875 7.82812 4.17188 10.8906 2.82812C13.9531 1.48437 17.375 0.8125 21.1562 0.8125C25.3438 0.8125 28.9219 1.53125 31.8906 2.96875C34.8594 4.375 37.125 6.4375 38.6875 9.15625C40.2812 11.8437 41.0781 15.0938 41.0781 18.9062C41.0781 21.6562 40.5312 24.1562 39.4375 26.4062C38.3438 28.625 36.9219 30.7031 35.1719 32.6406C33.4219 34.5469 31.5312 36.4531 29.5 38.3594C27.75 39.9531 26.5625 41.6875 25.9375 43.5625C25.3125 45.4062 24.9844 47.5156 24.9531 49.8906ZM13.5625 64.5156C13.5625 62.8281 14.1406 61.4062 15.2969 60.25C16.4531 59.0625 18.0312 58.4688 20.0312 58.4688C22.0312 58.4688 23.6094 59.0625 24.7656 60.25C25.9219 61.4062 26.5 62.8281 26.5 64.5156C26.5 66.2031 25.9219 67.6406 24.7656 68.8281C23.6094 69.9844 22.0312 70.5625 20.0312 70.5625C18.0312 70.5625 16.4531 69.9844 15.2969 68.8281C14.1406 67.6406 13.5625 66.2031 13.5625 64.5156Z" fill="#DB44C9"/>
</svg>
