<svg width="94" height="93" viewBox="0 0 94 93" fill="none" xmlns="http://www.w3.org/2000/svg">
<path d="M53 19.25L43.25 10V16.1667H20.5C18.7761 16.1667 17.1228 16.8164 15.9038 17.9728C14.6848 19.1293 14 20.6978 14 22.3333V71.6667C14 73.3022 14.6848 74.8707 15.9038 76.0272C17.1228 77.1836 18.7761 77.8333 20.5 77.8333H33.5V71.6667H20.5V22.3333H43.25V28.5L53 19.25ZM40 74.75L49.75 84V77.8333H72.5C74.2239 77.8333 75.8772 77.1836 77.0962 76.0272C78.3152 74.8707 79 73.3022 79 71.6667V22.3333C79 20.6978 78.3152 19.1293 77.0962 17.9728C75.8772 16.8164 74.2239 16.1667 72.5 16.1667H59.5V22.3333H72.5V71.6667H49.75V65.5L40 74.75Z" fill="#DB44C9"/>
<path fill-rule="evenodd" clip-rule="evenodd" d="M28 48.1821C27.7348 48.1821 27.4804 48.2874 27.2929 48.475C27.1054 48.6625 27 48.9169 27 49.1821V59.1821C27 59.4473 27.1054 59.7016 27.2929 59.8892C27.4804 60.0767 27.7348 60.1821 28 60.1821H36.053C37.45 60.1821 38.838 59.9571 40.163 59.5151L44.163 58.1821H45.343C45.9997 58.1822 46.6499 58.053 47.2566 57.8018C47.8633 57.5506 48.4146 57.1823 48.879 56.7181L49.562 56.0341L51.073 55.4301C53.4052 54.4974 55.4173 52.909 56.866 50.8571L60.696 45.4311L65.515 42.5401C65.6424 42.4635 65.7512 42.3595 65.8333 42.2357C65.9155 42.1118 65.969 41.9712 65.99 41.8241L66.99 34.8241C67.0155 34.6465 66.9927 34.4654 66.9241 34.2996C66.8554 34.1339 66.7435 33.9897 66.6 33.8821L66.224 33.6001C65.9059 33.3615 65.5435 33.1885 65.158 33.0912C64.7724 32.9939 64.3714 32.9742 63.9781 33.0333C63.5849 33.0924 63.2073 33.2291 62.8674 33.4354C62.5275 33.6417 62.2319 33.9135 61.998 34.2351L61.567 34.8281C61.4086 34.5978 61.2188 34.3908 61.003 34.2131L60.636 33.9111C60.5338 33.8267 60.4158 33.7635 60.2889 33.7251C60.162 33.6867 60.0288 33.674 59.8969 33.6876C59.7651 33.7012 59.6373 33.7408 59.5209 33.8042C59.4045 33.8677 59.3019 33.9536 59.219 34.0571L56.096 37.9621C55.3867 38.8485 55.0002 39.9498 55 41.0851V42.4751L51.125 43.8421C48.4161 44.7982 46.1002 46.6246 44.539 49.0361L42.676 48.5701C41.6448 48.3123 40.5859 48.182 39.523 48.1821H28ZM59.903 37.1161L59.191 38.0941C59.0351 38.3086 58.9707 38.5764 59.0122 38.8383C59.0536 39.1003 59.1974 39.3351 59.412 39.4911C59.6266 39.647 59.8943 39.7113 60.1563 39.6699C60.4183 39.6285 60.653 39.4846 60.809 39.2701L61.52 38.2921L63.615 35.4121C63.7605 35.2121 63.9749 35.0731 64.2168 35.022C64.4587 34.9708 64.711 35.0111 64.925 35.1351L64.077 41.0691L59.486 43.8251C59.3666 43.8963 59.2634 43.9917 59.183 44.1051L55.232 49.7031C54.0062 51.4396 52.3036 52.7838 50.33 53.5731L48.629 54.2531C48.503 54.3034 48.3887 54.3789 48.293 54.4751L47.465 55.3031C47.1865 55.582 46.8557 55.8032 46.4916 55.9542C46.1275 56.1052 45.7372 56.183 45.343 56.1831H44C43.8927 56.1827 43.786 56.1996 43.684 56.2331L39.531 57.6181C38.4095 57.9917 37.2351 58.1821 36.053 58.1821H29V50.1821H39.523C40.423 50.1821 41.318 50.2921 42.191 50.5101L44.758 51.1521C44.9629 51.2032 45.1787 51.1882 45.3745 51.1091C45.5703 51.0301 45.736 50.8911 45.848 50.7121L46.124 50.2721C47.444 48.1594 49.442 46.5574 51.791 45.7281L56.333 44.1251C56.5281 44.0562 56.697 43.9285 56.8164 43.7596C56.9359 43.5907 57 43.3889 57 43.1821V41.0851C56.9999 40.4039 57.2316 39.743 57.657 39.2111L60.047 36.2241C60.0947 36.3736 60.1065 36.5323 60.0815 36.6873C60.0565 36.8422 59.9953 36.9891 59.903 37.1161Z" fill="#DB44C9"/>
</svg>
