<svg width="59" height="73" viewBox="0 0 59 73" fill="none" xmlns="http://www.w3.org/2000/svg">
<path d="M53.5625 2H5.4375C3.53902 2 2 3.53902 2 5.4375V67.3125C2 69.211 3.53902 70.75 5.4375 70.75H53.5625C55.461 70.75 57 69.211 57 67.3125V5.4375C57 3.53902 55.461 2 53.5625 2Z" stroke="#DB44C9" stroke-width="4" stroke-linecap="round" stroke-linejoin="round"/>
<path d="M12.3125 14.0312H46.6875V29.5H12.3125V14.0312Z" stroke="#DB44C9" stroke-width="4" stroke-linecap="round" stroke-linejoin="round"/>
<path d="M17.4688 43.25C19.3672 43.25 20.9062 41.711 20.9062 39.8125C20.9062 37.914 19.3672 36.375 17.4688 36.375C15.5703 36.375 14.0312 37.914 14.0312 39.8125C14.0312 41.711 15.5703 43.25 17.4688 43.25Z" fill="#DB44C9"/>
<path d="M17.4688 53.5625C19.3672 53.5625 20.9062 52.0235 20.9062 50.125C20.9062 48.2265 19.3672 46.6875 17.4688 46.6875C15.5703 46.6875 14.0312 48.2265 14.0312 50.125C14.0312 52.0235 15.5703 53.5625 17.4688 53.5625Z" fill="#DB44C9"/>
<path d="M17.4688 63.875C19.3672 63.875 20.9062 62.336 20.9062 60.4375C20.9062 58.539 19.3672 57 17.4688 57C15.5703 57 14.0312 58.539 14.0312 60.4375C14.0312 62.336 15.5703 63.875 17.4688 63.875Z" fill="#DB44C9"/>
<path d="M29.5 43.25C31.3985 43.25 32.9375 41.711 32.9375 39.8125C32.9375 37.914 31.3985 36.375 29.5 36.375C27.6015 36.375 26.0625 37.914 26.0625 39.8125C26.0625 41.711 27.6015 43.25 29.5 43.25Z" fill="#DB44C9"/>
<path d="M29.5 53.5625C31.3985 53.5625 32.9375 52.0235 32.9375 50.125C32.9375 48.2265 31.3985 46.6875 29.5 46.6875C27.6015 46.6875 26.0625 48.2265 26.0625 50.125C26.0625 52.0235 27.6015 53.5625 29.5 53.5625Z" fill="#DB44C9"/>
<path d="M29.5 63.875C31.3985 63.875 32.9375 62.336 32.9375 60.4375C32.9375 58.539 31.3985 57 29.5 57C27.6015 57 26.0625 58.539 26.0625 60.4375C26.0625 62.336 27.6015 63.875 29.5 63.875Z" fill="#DB44C9"/>
<path d="M41.5312 43.25C43.4297 43.25 44.9688 41.711 44.9688 39.8125C44.9688 37.914 43.4297 36.375 41.5312 36.375C39.6328 36.375 38.0938 37.914 38.0938 39.8125C38.0938 41.711 39.6328 43.25 41.5312 43.25Z" fill="#DB44C9"/>
<path d="M41.5312 53.5625C43.4297 53.5625 44.9688 52.0235 44.9688 50.125C44.9688 48.2265 43.4297 46.6875 41.5312 46.6875C39.6328 46.6875 38.0938 48.2265 38.0938 50.125C38.0938 52.0235 39.6328 53.5625 41.5312 53.5625Z" fill="#DB44C9"/>
<path d="M41.5312 63.875C43.4297 63.875 44.9688 62.336 44.9688 60.4375C44.9688 58.539 43.4297 57 41.5312 57C39.6328 57 38.0938 58.539 38.0938 60.4375C38.0938 62.336 39.6328 63.875 41.5312 63.875Z" fill="#DB44C9"/>
</svg>
