<svg width="76" height="86" viewBox="0 0 76 86" fill="none" xmlns="http://www.w3.org/2000/svg">
<path d="M68.2668 12.8713L64.6252 8.75049C64.1863 8.24779 63.6636 7.84866 63.0874 7.57625C62.5112 7.30384 61.893 7.16357 61.2685 7.16357C60.644 7.16357 60.0258 7.30384 59.4496 7.57625C58.8734 7.84866 58.3507 8.24779 57.9118 8.75049L41.1665 27.7027V39.4167H51.5215L68.2668 20.468C68.7111 19.9714 69.0638 19.3799 69.3045 18.7279C69.5453 18.0759 69.6692 17.3763 69.6692 16.6697C69.6692 15.963 69.5453 15.2634 69.3045 14.6114C69.0638 13.9594 68.7111 13.3679 68.2668 12.8713ZM49.3333 33.8625H46.0717V30.1717L56.9998 17.8199L60.2615 21.5107L49.3333 33.8625Z" fill="#DB44C9"/>
<path d="M60.1667 68.0833H15.8333V17.9167H34.8333V10.75H15.8333C14.1552 10.7557 12.5472 11.5126 11.3605 12.8553C10.1739 14.1981 9.50501 16.0177 9.5 17.9167V68.0833C9.50501 69.9823 10.1739 71.8019 11.3605 73.1447C12.5472 74.4875 14.1552 75.2443 15.8333 75.25H60.1667C61.8448 75.2443 63.4528 74.4875 64.6395 73.1447C65.8261 71.8019 66.495 69.9823 66.5 68.0833V46.5833H60.1667V68.0833Z" fill="#DB44C9"/>
<path d="M19 28.6665H44.3333V35.8332H19V28.6665ZM19 42.9998H57V50.1665H19V42.9998ZM19 57.3332H28.4683V64.4998H19V57.3332Z" fill="#DB44C9"/>
</svg>
