<svg width="72" height="70" viewBox="0 0 72 70" fill="none" xmlns="http://www.w3.org/2000/svg">
<path d="M3.27212 69.6069H49.0818C50.8858 69.6069 52.3539 68.143 52.3539 66.3441V50.03C52.3539 50.0082 52.343 49.9908 52.3408 49.9691C52.4608 49.893 52.5852 49.8212 52.703 49.7407L70.1237 67.112C70.2242 67.216 70.3444 67.299 70.4774 67.3562C70.6104 67.4134 70.7535 67.4436 70.8983 67.445C71.0431 67.4465 71.1868 67.4191 71.3209 67.3646C71.455 67.3102 71.5769 67.2296 71.6795 67.1276C71.782 67.0256 71.8632 66.9043 71.9182 66.7707C71.9732 66.6372 72.001 66.494 72 66.3496C71.9989 66.2052 71.969 66.0624 71.9121 65.9296C71.8551 65.7969 71.7722 65.6767 71.6682 65.5763L54.4066 48.3638C55.8231 47.0459 56.9527 45.4518 57.7254 43.6804C58.498 41.9089 58.8972 39.998 58.8982 38.0663C58.8961 35.6927 58.2942 33.3579 57.1481 31.2776C56.002 29.1972 54.3487 27.4384 52.3408 26.1635C52.343 26.1418 52.3539 26.1244 52.3539 26.1026V20.6646C52.3539 20.6276 52.3365 20.5971 52.3343 20.5623C52.3299 20.5123 52.3169 20.4688 52.3059 20.4209C52.2717 20.2698 52.2047 20.128 52.1096 20.0055C52.0943 19.9859 52.0965 19.962 52.0813 19.9424L34.6299 0.365436C34.6234 0.358911 34.6147 0.358911 34.6081 0.352385C34.4753 0.213292 34.3072 0.112582 34.1217 0.0609061C34.0802 0.0478548 34.0431 0.0435043 33.9995 0.0369787C33.9363 0.0261026 33.8774 0 33.8119 0H3.27212C1.46809 0 0 1.46392 0 3.26283V66.3441C0 68.143 1.46809 69.6069 3.27212 69.6069ZM56.7168 38.0663C56.7168 44.6637 51.333 50.03 44.719 50.03C38.1049 50.03 32.7212 44.6637 32.7212 38.0663C32.7212 31.4689 38.1049 26.1026 44.719 26.1026C51.333 26.1026 56.7168 31.4689 56.7168 38.0663ZM34.9026 3.94802L48.8353 19.577H35.9933C35.5134 19.577 34.9026 18.6634 34.9026 17.9455V3.94802ZM2.18141 3.26283C2.18141 2.97437 2.29633 2.69774 2.50087 2.49377C2.70542 2.2898 2.98285 2.17522 3.27212 2.17522H32.7212V17.9455C32.7212 19.7053 34.15 21.7522 35.9933 21.7522H50.1725V25.0172C47.5377 23.9181 44.6306 23.6414 41.8348 24.2235C39.039 24.8056 36.4858 26.2192 34.5121 28.2778H11.9978C11.7085 28.2778 11.4311 28.3924 11.2265 28.5964C11.022 28.8003 10.9071 29.077 10.9071 29.3654C10.9071 29.6539 11.022 29.9305 11.2265 30.1345C11.4311 30.3385 11.7085 30.453 11.9978 30.453H32.791C31.5268 32.4125 30.7726 34.6554 30.5965 36.9787H11.9978C11.7085 36.9787 11.4311 37.0933 11.2265 37.2972C11.022 37.5012 10.9071 37.7778 10.9071 38.0663C10.9071 38.3547 11.022 38.6314 11.2265 38.8354C11.4311 39.0393 11.7085 39.1539 11.9978 39.1539H30.5943C30.7715 41.477 31.5256 43.7196 32.7888 45.6796H11.9978C11.7085 45.6796 11.4311 45.7941 11.2265 45.9981C11.022 46.2021 10.9071 46.4787 10.9071 46.7672C10.9071 47.0556 11.022 47.3323 11.2265 47.5362C11.4311 47.7402 11.7085 47.8548 11.9978 47.8548H34.3573C34.4031 47.8548 34.4423 47.8352 34.4882 47.8287C36.4611 49.8959 39.0172 51.3169 41.818 51.9034C44.6188 52.49 47.5322 52.2144 50.1725 51.1132V66.3441C50.1725 66.6326 50.0576 66.9092 49.8531 67.1132C49.6485 67.3171 49.3711 67.4317 49.0818 67.4317H3.27212C2.66132 67.4317 2.18141 66.9532 2.18141 66.3441V3.26283Z" fill="#DB44C9"/>
<path d="M11.9979 21.7524H25.0864C25.3757 21.7524 25.6531 21.6378 25.8577 21.4338C26.0622 21.2298 26.1771 20.9532 26.1771 20.6648C26.1771 20.3763 26.0622 20.0997 25.8577 19.8957C25.6531 19.6917 25.3757 19.5771 25.0864 19.5771H11.9979C11.7087 19.5771 11.4312 19.6917 11.2267 19.8957C11.0221 20.0997 10.9072 20.3763 10.9072 20.6648C10.9072 20.9532 11.0221 21.2298 11.2267 21.4338C11.4312 21.6378 11.7087 21.7524 11.9979 21.7524ZM11.9979 56.5558H40.3563C40.6456 56.5558 40.923 56.4412 41.1276 56.2373C41.3321 56.0333 41.447 55.7567 41.447 55.4682C41.447 55.1798 41.3321 54.9031 41.1276 54.6992C40.923 54.4952 40.6456 54.3806 40.3563 54.3806H11.9979C11.7087 54.3806 11.4312 54.4952 11.2267 54.6992C11.0221 54.9031 10.9072 55.1798 10.9072 55.4682C10.9072 55.7567 11.0221 56.0333 11.2267 56.2373C11.4312 56.4412 11.7087 56.5558 11.9979 56.5558Z" fill="#DB44C9"/>
</svg>
