<svg width="76" height="75" viewBox="0 0 76 75" fill="none" xmlns="http://www.w3.org/2000/svg">
<path fill-rule="evenodd" clip-rule="evenodd" d="M62.8583 27.3438L76 29.9375V45.0625L62.8583 47.6562L70.3 58.6562L59.4383 69.375L48.2917 62.0312L45.6633 75H30.3367L27.7083 62.0312L16.5617 69.375L5.7 58.6562L13.1417 47.6562L0 45.0625V29.9375L13.1417 27.3438L5.7 16.3438L16.5617 5.625L27.7083 12.9688L30.3367 0H45.6633L48.2917 12.9688L59.4383 5.625L70.3 16.3438L62.8583 27.3438ZM57.8867 43.1875L70.5533 40.6562V34.4062L57.8867 31.875L56.1767 27.8125L63.4283 17.0938L58.9 12.625L48.0383 19.7812L43.9217 18.0938L41.3567 5.59375H35.0233L32.4583 18.0938L28.3417 19.7812L17.48 12.625L12.9517 17.0938L20.2033 27.8125L18.4933 31.875L5.82667 34.4062V40.6562L18.4933 43.1875L20.2033 47.25L12.9517 57.9687L17.48 62.4375L28.3417 55.2812L32.4583 56.9688L35.0233 69.4688H41.3567L43.9217 56.9688L48.0383 55.2812L58.9 62.4375L63.4283 57.9687L56.1767 47.25L57.8867 43.1875ZM31.9643 28.5875C33.7509 27.4095 35.8514 26.781 38 26.7812C40.8781 26.7895 43.636 27.9214 45.6711 29.9298C47.7063 31.9382 48.8533 34.6597 48.8617 37.5C48.8615 39.3517 48.3752 41.1718 47.4502 42.7829C46.5253 44.3939 45.1931 45.7411 43.5837 46.693C41.9742 47.6449 40.1423 48.1691 38.2665 48.2145C36.3907 48.2599 34.5349 47.825 32.8801 46.9522C31.2252 46.0793 29.8277 44.7983 28.8238 43.234C27.8198 41.6696 27.2437 39.8753 27.1515 38.0258C27.0592 36.1763 27.4541 34.3348 28.2976 32.6808C29.141 31.0267 30.4043 29.6165 31.9643 28.5875ZM34.9917 41.9437C35.8815 42.5312 36.9297 42.8438 38 42.8438C38.7123 42.8479 39.4183 42.7125 40.0772 42.4454C40.7361 42.1783 41.3347 41.7849 41.8384 41.2878C42.342 40.7908 42.7407 40.2001 43.0114 39.5499C43.282 38.8997 43.4192 38.2029 43.415 37.5C43.4149 36.5768 43.1725 35.6694 42.7113 34.8662C42.2501 34.063 41.5859 33.3914 40.7835 32.9168C39.9811 32.4423 39.0677 32.181 38.1325 32.1584C37.1973 32.1358 36.2721 32.3527 35.4471 32.7879C34.6221 33.2231 33.9254 33.8619 33.425 34.6419C32.9245 35.4218 32.6374 36.3165 32.5915 37.2385C32.5456 38.1606 32.7426 39.0787 33.1633 39.9033C33.5839 40.7279 34.2138 41.4309 34.9917 41.9437Z" fill="#DB44C9"/>
</svg>
